<svg xmlns="http://www.w3.org/2000/svg" viewBox="0 0 18 18"><defs><style>.cls-1{fill:#fedd00;}.cls-2{fill:#333;}</style></defs><g id="Layer_2" data-name="Layer 2"><g id="Layer_1-2" data-name="Layer 1"><rect class="cls-1" width="18" height="18" rx="2.13"/><path class="cls-2" d="M15.1,6.05a1.73,1.73,0,0,0-.59-.78c-1.65-1.3-3.32-2.57-5-3.88a.71.71,0,0,0-1.07,0C6.81,2.7,5.11,4,3.44,5.3a1.54,1.54,0,0,0-.55.7C2.24,8.31,1.62,10.63,1,12.94a1.07,1.07,0,0,0,.22.19c2.45,1.24,4.9,2.48,7.37,3.67a1.31,1.31,0,0,0,1-.09c1.79-.85,3.56-1.76,5.33-2.65L17,13C16.35,10.63,15.75,8.33,15.1,6.05ZM9.63,3.17l2.21,1.7-.06.22a16.61,16.61,0,0,1-1.73,0c-.15,0-.37-.29-.4-.47A9,9,0,0,1,9.63,3.17Zm3.89,3.32-.85,3-2.31-3ZM9,6.88l2.55,3.39H6.44ZM8.28,3.22c.1,2,.52,2-2.27,1.77ZM7.57,6.54l-2.25,3-.86-3Zm-4,2.17c1,1.57.87,2-.72,2.63Zm2.8,5.49L3.44,12.76c1.08-1,1.32-1,2.11.06l.92,1.23Zm2.66,1L6.42,11.74h5.14Zm2.65-.95-.13-.16c.48-.63.93-1.29,1.45-1.89.11-.12.49-.08.71,0a6.83,6.83,0,0,1,1,.53Zm2.78-5.6.72,2.64C13.61,10.88,13.53,10.6,14.42,8.61Z"/></g></g></svg>